<svg width="468" height="86" viewBox="0 0 468 86" xmlns="http://www.w3.org/2000/svg"><g fill="none" fill-rule="evenodd"><path fill="#FFFEFC" d="M0 0h468v86H0z"/><path stroke="#191D27" fill="#FFF6E5" fill-rule="nonzero" stroke-linecap="square" d="m135 53-19-9.5 19-9.5v8h5v3h-5zm204-19 19 9.5-19 9.5v-8h-5v-3h5z"/><path d="M150.906 40.76c.228 0 .385-.023.471-.07.087-.047.13-.126.13-.237v-.8c0-.111-.047-.19-.14-.237-.092-.048-.254-.071-.485-.071-.228 0-.384.023-.469.068-.085.046-.127.125-.127.24v.8c0 .11.047.19.14.237.092.047.252.07.48.07Zm-1.142 7.242c.566 0 .998-.158 1.296-.474.298-.315.447-.776.447-1.382v-4.35c0-.11-.024-.19-.071-.237-.047-.047-.126-.07-.237-.07h-2.783a.33.33 0 0 0-.18.04c-.043.028-.075.078-.096.15a1.17 1.17 0 0 0-.032.312c0 .137.011.241.032.313.021.071.053.12.095.146a.35.35 0 0 0 .181.04h1.87v3.593c0 .54-.21.81-.63.81a1.69 1.69 0 0 1-.525-.1 7.54 7.54 0 0 1-.7-.28.501.501 0 0 0-.171-.04.291.291 0 0 0-.215.096 1 1 0 0 0-.18.3.909.909 0 0 0-.089.342c0 .146.074.255.22.327.296.15.595.265.896.344.301.08.592.12.872.12Zm5.634-1.895c.645 0 1.182-.374 1.612-1.123v.708c0 .111.023.19.07.237.048.047.127.071.237.071h1.094a.33.33 0 0 0 .18-.042c.043-.027.075-.077.096-.148a1.17 1.17 0 0 0 .032-.313c0-.137-.01-.24-.032-.312-.021-.072-.053-.12-.095-.147a.346.346 0 0 0-.18-.039h-.377v-3.203c0-.11-.023-.19-.07-.237-.048-.047-.127-.07-.237-.07h-1.436a.346.346 0 0 0-.18.038c-.043.026-.075.075-.096.147a1.17 1.17 0 0 0-.032.312c0 .137.011.241.032.313a.26.26 0 0 0 .095.149.33.33 0 0 0 .181.041h.522v.796c0 .3-.05.581-.153.845a1.68 1.68 0 0 1-.408.632c-.17.158-.348.237-.537.237-.205 0-.352-.065-.44-.195-.088-.13-.131-.323-.131-.576v-2.432c0-.11-.024-.19-.071-.237-.047-.047-.126-.07-.237-.07h-1.29a.346.346 0 0 0-.18.038c-.042.026-.074.075-.095.147a1.17 1.17 0 0 0-.032.312c0 .137.01.241.032.313a.26.26 0 0 0 .095.149.33.33 0 0 0 .18.041h.377v2.027c0 .322.06.603.18.842.12.24.293.424.516.554.223.13.482.195.778.195Zm6.875 0c.41 0 .761-.06 1.053-.183.291-.122.512-.296.664-.522a1.41 1.41 0 0 0 .227-.803c0-.316-.073-.57-.22-.762a1.434 1.434 0 0 0-.61-.45 2.904 2.904 0 0 0-.57-.16c-.2-.036-.45-.072-.754-.108a4.826 4.826 0 0 1-.649-.093c-.24-.058-.361-.156-.361-.293 0-.114.054-.205.163-.273.11-.068.26-.103.452-.103.325 0 .612.044.86.13.247.086.466.232.659.437.065.068.183.102.356.102.16 0 .274-.023.344-.07.07-.048.105-.127.105-.237v-1.03c0-.111-.044-.19-.132-.237-.088-.048-.236-.071-.444-.071-.205 0-.347.023-.427.07-.08.048-.12.127-.12.237v.05a2.42 2.42 0 0 0-1.308-.357 2.33 2.33 0 0 0-.906.168c-.269.113-.48.275-.633.486-.153.212-.229.46-.229.742 0 .534.225.925.674 1.172.192.108.406.187.642.237.236.05.518.095.847.134.296.043.485.072.566.088a.997.997 0 0 1 .325.122c.073.05.11.114.11.196 0 .27-.26.405-.781.405-.303 0-.581-.047-.835-.142a1.407 1.407 0 0 1-.625-.449c-.072-.091-.207-.137-.405-.137-.16 0-.278.025-.354.074-.077.048-.115.127-.115.234V45.8c0 .11.044.19.132.237.088.047.236.07.444.07.208 0 .36-.023.454-.07a.245.245 0 0 0 .142-.237v-.04c.387.232.807.347 1.26.347Zm6.182 0c.492 0 1.073-.169 1.743-.507a.433.433 0 0 0 .154-.125.296.296 0 0 0 .051-.178c0-.091-.029-.21-.088-.357a.82.82 0 0 0-.166-.28.27.27 0 0 0-.19-.086c-.042 0-.1.015-.17.044a7.47 7.47 0 0 1-.702.28 1.66 1.66 0 0 1-.524.101c-.42 0-.63-.27-.63-.81V42.83h1.811c.114 0 .194-.037.24-.11.045-.073.068-.21.068-.412 0-.202-.023-.34-.069-.415-.045-.075-.125-.113-.239-.113h-1.811v-1.377a.291.291 0 0 0-.05-.18c-.032-.043-.09-.074-.173-.096a1.515 1.515 0 0 0-.354-.031c-.23 0-.396.023-.495.07a.243.243 0 0 0-.15.237v1.377h-.941c-.114 0-.194.038-.24.113-.045.074-.068.213-.068.415 0 .201.023.339.068.412.046.073.126.11.24.11h.942v1.421c0 .605.149 1.066.447 1.382.298.316.73.473 1.296.473Zm5.606-5.346c.227 0 .384-.024.47-.071.087-.047.13-.126.13-.237v-.8c0-.111-.046-.19-.139-.237-.093-.048-.255-.071-.486-.071-.228 0-.384.023-.469.068-.084.046-.127.125-.127.24v.8c0 .11.047.19.14.237.092.047.253.07.48.07ZM176.033 46a.346.346 0 0 0 .18-.04c.043-.025.075-.074.096-.146a1.17 1.17 0 0 0 .032-.312c0-.137-.01-.24-.032-.313a.257.257 0 0 0-.095-.148.33.33 0 0 0-.18-.042h-1.373v-3.203c0-.11-.023-.19-.07-.237-.048-.047-.127-.07-.237-.07H172.4a.33.33 0 0 0-.18.04c-.043.028-.074.078-.095.15a1.17 1.17 0 0 0-.032.312c0 .137.01.241.032.313.02.071.052.12.095.146.042.026.102.04.18.04h1.04v2.509h-1.333a.33.33 0 0 0-.18.042c-.043.027-.074.077-.095.148a1.17 1.17 0 0 0-.032.313c0 .137.01.24.032.312.02.072.052.12.095.147a.344.344 0 0 0 .18.039h3.926Zm5.557 0a.346.346 0 0 0 .18-.04c.043-.025.075-.074.096-.146a1.17 1.17 0 0 0 .031-.312c0-.137-.01-.24-.031-.313a.257.257 0 0 0-.095-.148.33.33 0 0 0-.181-.042h-1.372v-2.168h1.518c.114 0 .194-.037.24-.11.045-.073.068-.21.068-.412 0-.202-.023-.34-.068-.415-.046-.075-.126-.113-.24-.113h-1.518v-.293c0-.54.21-.81.63-.81.309 0 .67.063 1.084.19a.516.516 0 0 0 .141.025.267.267 0 0 0 .203-.093.752.752 0 0 0 .144-.308c.032-.117.049-.218.049-.303a.351.351 0 0 0-.061-.217.386.386 0 0 0-.183-.124 4.202 4.202 0 0 0-1.485-.279c-.566 0-.998.158-1.296.474-.298.316-.447.776-.447 1.382v.356h-.893c-.114 0-.194.038-.24.113-.045.074-.068.213-.068.415 0 .201.023.339.068.412.046.073.126.11.24.11h.893V45h-.893a.33.33 0 0 0-.181.042c-.042.027-.074.077-.095.148a1.17 1.17 0 0 0-.032.313c0 .137.01.24.032.312.02.072.053.12.095.147a.344.344 0 0 0 .18.039h3.487Zm2.31 2.002c.42-.013.762-.07 1.027-.169.266-.099.502-.268.708-.507.207-.24.424-.589.652-1.048l1.87-3.789h.313a.346.346 0 0 0 .18-.039c.043-.026.074-.075.096-.146a1.17 1.17 0 0 0 .031-.313c0-.137-.01-.24-.031-.312-.022-.072-.053-.122-.096-.15a.33.33 0 0 0-.18-.04h-1.875a.33.33 0 0 0-.18.04c-.043.028-.075.078-.096.15a1.17 1.17 0 0 0-.032.312c0 .137.01.241.032.313.021.071.053.12.095.146.042.026.103.04.18.04h.264l-.85 1.855-.849-1.856h.293a.346.346 0 0 0 .18-.039c.043-.026.075-.075.096-.146a1.17 1.17 0 0 0 .032-.313c0-.137-.01-.24-.032-.312-.021-.072-.053-.122-.095-.15a.33.33 0 0 0-.18-.04h-1.974a.33.33 0 0 0-.18.04c-.042.028-.074.078-.095.15a1.17 1.17 0 0 0-.032.312c0 .137.01.241.032.313.02.071.053.12.095.146.042.026.102.04.18.04h.367l1.494 3.07a6.202 6.202 0 0 1-.476.804 1.268 1.268 0 0 1-.44.388c-.16.081-.37.13-.627.146a.232.232 0 0 0-.188.118c-.044.071-.066.19-.066.356 0 .241.03.407.09.498a.29.29 0 0 0 .266.132Zm9.931-4.297a.33.33 0 0 0 .18-.041c.043-.028.075-.081.096-.16.021-.077.032-.193.032-.346 0-.153-.01-.268-.032-.346-.021-.079-.053-.132-.095-.162a.315.315 0 0 0-.18-.044h-3.722a.315.315 0 0 0-.18.044c-.043.03-.074.083-.096.162a1.418 1.418 0 0 0-.031.346c0 .153.01.269.031.347.022.078.053.13.096.159a.33.33 0 0 0 .18.041h3.721Zm4.233 2.402c.336 0 .67-.047 1.004-.141.334-.095.652-.226.954-.396.14-.078.21-.19.21-.337a.958.958 0 0 0-.087-.356c-.111-.257-.24-.386-.386-.386a.337.337 0 0 0-.161.049 3.73 3.73 0 0 1-.765.337 2.585 2.585 0 0 1-.769.122c-.234 0-.439-.051-.615-.154a1.035 1.035 0 0 1-.407-.44 1.45 1.45 0 0 1-.145-.66c0-.252.048-.472.145-.662.096-.19.231-.337.407-.44.176-.102.381-.154.615-.154.186 0 .345.035.477.105a.721.721 0 0 1 .397.662c0 .078.017.138.05.18.032.043.09.075.173.096.083.02.2.031.354.031.23 0 .396-.023.495-.07a.243.243 0 0 0 .15-.237v-1.568c0-.113-.038-.193-.113-.239-.075-.045-.213-.068-.415-.068-.208 0-.36.023-.454.07a.245.245 0 0 0-.142.237v.264c-.218-.38-.59-.571-1.118-.571-.436 0-.83.1-1.184.3-.353.2-.632.48-.838.84-.205.36-.307.767-.307 1.223 0 .456.102.863.305 1.22.203.359.492.639.867.84.374.203.809.303 1.303.303Zm5.899 0c.495 0 .928-.1 1.299-.302.37-.202.656-.482.857-.84.2-.358.3-.765.3-1.22 0-.457-.1-.863-.3-1.222a2.119 2.119 0 0 0-.857-.84c-.371-.201-.804-.302-1.3-.302-.494 0-.927.1-1.298.303a2.119 2.119 0 0 0-.857.84c-.2.358-.3.764-.3 1.22 0 .456.1.863.3 1.22.2.359.486.639.857.84.371.203.804.303 1.299.303Zm0-1.108c-.234 0-.438-.051-.61-.154a1.017 1.017 0 0 1-.398-.437 1.49 1.49 0 0 1-.14-.664c0-.254.047-.475.14-.664a1.01 1.01 0 0 1 .398-.437c.172-.102.376-.154.61-.154.234 0 .438.052.61.154.173.103.305.248.398.437.093.189.14.41.14.664 0 .254-.047.475-.14.664a1.017 1.017 0 0 1-.398.437 1.172 1.172 0 0 1-.61.154ZM209.47 46a.346.346 0 0 0 .18-.04c.043-.025.074-.074.096-.146a1.17 1.17 0 0 0 .031-.312c0-.137-.01-.24-.031-.313-.022-.071-.053-.12-.096-.148a.33.33 0 0 0-.18-.042h-.23v-.796c0-.3.051-.58.154-.845a1.68 1.68 0 0 1 .408-.632c.169-.158.348-.237.537-.237.205 0 .351.065.44.196.087.13.131.322.131.576v1.738h-.23a.33.33 0 0 0-.18.042c-.042.027-.074.077-.095.148a1.17 1.17 0 0 0-.032.313c0 .137.01.24.032.312.02.072.053.12.095.147a.346.346 0 0 0 .18.039h1.827a.346.346 0 0 0 .18-.04c.043-.025.075-.074.096-.146a1.17 1.17 0 0 0 .031-.312c0-.137-.01-.24-.031-.313-.021-.071-.053-.12-.096-.148a.33.33 0 0 0-.18-.042h-.376v-2.026c0-.323-.06-.603-.18-.843a1.306 1.306 0 0 0-.516-.554 1.516 1.516 0 0 0-.779-.195c-.644 0-1.181.374-1.611 1.123v-.708c0-.11-.024-.19-.07-.237-.048-.047-.127-.07-.238-.07h-1.191a.33.33 0 0 0-.18.04c-.043.028-.075.078-.096.15a1.17 1.17 0 0 0-.032.312c0 .137.01.241.032.313.021.071.053.12.095.146.043.026.103.04.18.04h.475v2.509h-.376a.33.33 0 0 0-.181.042c-.042.027-.074.077-.095.148a1.17 1.17 0 0 0-.032.313c0 .137.01.24.032.312.02.072.053.12.095.147a.344.344 0 0 0 .18.039h1.827Zm6.953.107c.491 0 1.072-.169 1.743-.507a.433.433 0 0 0 .154-.125.296.296 0 0 0 .051-.178c0-.091-.03-.21-.088-.357a.82.82 0 0 0-.166-.28.27.27 0 0 0-.19-.086c-.043 0-.1.015-.171.044-.267.12-.5.214-.7.28a1.67 1.67 0 0 1-.526.101c-.42 0-.63-.27-.63-.81V42.83h1.812c.114 0 .194-.037.24-.11.045-.073.068-.21.068-.412 0-.202-.023-.34-.069-.415-.045-.075-.125-.113-.24-.113h-1.81v-1.377a.291.291 0 0 0-.05-.18c-.032-.043-.09-.074-.173-.096a1.515 1.515 0 0 0-.354-.031c-.23 0-.396.023-.495.07a.243.243 0 0 0-.15.237v1.377h-.942c-.114 0-.193.038-.239.113-.046.074-.068.213-.068.415 0 .201.022.339.068.412.046.073.125.11.24.11h.942v1.421c0 .605.149 1.066.446 1.382.298.316.73.473 1.297.473Zm5.547 0c.325 0 .657-.03.996-.092.338-.062.67-.147.996-.254a.39.39 0 0 0 .183-.115.31.31 0 0 0 .056-.198 1.19 1.19 0 0 0-.049-.307.953.953 0 0 0-.141-.332.232.232 0 0 0-.186-.098.369.369 0 0 0-.117.02 5.668 5.668 0 0 1-1.64.268c-.313 0-.571-.07-.775-.207a.962.962 0 0 1-.398-.599h3.135c.11 0 .19-.022.237-.068.047-.046.07-.124.07-.234 0-.489-.088-.922-.265-1.302a2.021 2.021 0 0 0-.789-.888c-.348-.214-.77-.32-1.264-.32-.492 0-.922.1-1.29.303a2.07 2.07 0 0 0-.844.84 2.507 2.507 0 0 0-.293 1.22c0 .46.093.867.28 1.223.188.357.46.636.818.838.358.202.785.302 1.28.302Zm1.093-2.866h-2.148c.14-.501.508-.752 1.104-.752.28 0 .51.066.69.198.181.132.3.317.354.554ZM227.46 46a.346.346 0 0 0 .18-.04c.043-.025.075-.074.096-.146a1.17 1.17 0 0 0 .032-.312c0-.137-.011-.24-.032-.313a.257.257 0 0 0-.095-.148.33.33 0 0 0-.181-.042h-.23v-.796c0-.3.052-.58.154-.845a1.68 1.68 0 0 1 .408-.632c.17-.158.348-.237.537-.237.205 0 .352.065.44.196.087.13.131.322.131.576v1.738h-.23a.33.33 0 0 0-.18.042c-.042.027-.074.077-.095.148a1.17 1.17 0 0 0-.032.313c0 .137.01.24.032.312.021.072.053.12.095.147a.349.349 0 0 0 .18.039h1.827a.346.346 0 0 0 .18-.04c.043-.025.075-.074.096-.146a1.17 1.17 0 0 0 .032-.312c0-.137-.01-.24-.032-.313a.257.257 0 0 0-.095-.148.33.33 0 0 0-.18-.042h-.377v-2.026c0-.323-.06-.603-.18-.843a1.306 1.306 0 0 0-.516-.554 1.516 1.516 0 0 0-.778-.195c-.645 0-1.182.374-1.612 1.123v-.708c0-.11-.023-.19-.07-.237-.048-.047-.127-.07-.237-.07h-1.192a.33.33 0 0 0-.18.04c-.043.028-.075.078-.096.15a1.17 1.17 0 0 0-.031.312c0 .137.01.241.031.313.021.071.053.12.095.146a.35.35 0 0 0 .181.04h.474v2.509h-.376a.33.33 0 0 0-.18.042c-.043.027-.075.077-.096.148a1.17 1.17 0 0 0-.032.313c0 .137.01.24.032.312.021.072.053.12.095.147a.346.346 0 0 0 .18.039h1.827Zm6.953.107c.492 0 1.073-.169 1.743-.507a.433.433 0 0 0 .154-.125.296.296 0 0 0 .051-.178c0-.091-.029-.21-.088-.357a.82.82 0 0 0-.166-.28.27.27 0 0 0-.19-.086c-.042 0-.1.015-.17.044a7.47 7.47 0 0 1-.702.28 1.66 1.66 0 0 1-.524.101c-.42 0-.63-.27-.63-.81V42.83h1.811c.114 0 .194-.037.24-.11.045-.073.068-.21.068-.412 0-.202-.023-.34-.069-.415-.045-.075-.125-.113-.239-.113h-1.811v-1.377a.291.291 0 0 0-.05-.18c-.032-.043-.09-.074-.173-.096a1.515 1.515 0 0 0-.354-.031c-.23 0-.396.023-.495.07a.243.243 0 0 0-.15.237v1.377h-.941c-.114 0-.194.038-.24.113-.045.074-.068.213-.068.415 0 .201.023.339.068.412.046.073.126.11.24.11h.942v1.421c0 .605.149 1.066.447 1.382.298.316.73.473 1.296.473Zm5.527-3.007c.284 0 .489-.024.616-.071.127-.047.19-.126.19-.237v-1.045c0-.11-.063-.19-.19-.237-.127-.047-.332-.07-.616-.07-.283 0-.488.023-.615.07-.127.047-.19.126-.19.237v1.045c0 .11.063.19.19.237.127.047.332.07.615.07Zm0 2.949c.284 0 .489-.024.616-.071.127-.047.19-.126.19-.237v-1.045c0-.11-.063-.19-.19-.237-.127-.047-.332-.07-.616-.07-.283 0-.488.023-.615.07-.127.048-.19.127-.19.237v1.045c0 .11.063.19.19.237.127.047.332.07.615.07Zm12.276.058c.41 0 .76-.06 1.052-.183.291-.122.513-.296.664-.522a1.41 1.41 0 0 0 .227-.803c0-.316-.073-.57-.22-.762a1.434 1.434 0 0 0-.61-.45 2.904 2.904 0 0 0-.569-.16c-.2-.036-.451-.072-.754-.108a4.826 4.826 0 0 1-.65-.093c-.24-.058-.36-.156-.36-.293 0-.114.054-.205.163-.273.109-.068.26-.103.451-.103.326 0 .612.044.86.13.247.086.467.232.659.437.065.068.184.102.356.102.16 0 .275-.023.345-.07.07-.048.105-.127.105-.237v-1.03c0-.111-.044-.19-.132-.237-.088-.048-.236-.071-.445-.071-.205 0-.347.023-.427.07-.08.048-.12.127-.12.237v.05a2.42 2.42 0 0 0-1.308-.357c-.335 0-.637.056-.906.168-.268.113-.48.275-.632.486-.153.212-.23.46-.23.742 0 .534.225.925.674 1.172.192.108.406.187.642.237.236.05.519.095.847.134.297.043.485.072.567.088a.997.997 0 0 1 .325.122c.073.05.11.114.11.196 0 .27-.261.405-.782.405-.303 0-.58-.047-.835-.142a1.407 1.407 0 0 1-.625-.449c-.071-.091-.206-.137-.405-.137-.16 0-.278.025-.354.074-.077.048-.115.127-.115.234V45.8c0 .11.044.19.132.237.088.047.236.07.444.07.209 0 .36-.023.454-.07a.245.245 0 0 0 .142-.237v-.04c.387.232.807.347 1.26.347Zm5.664 1.788a.33.33 0 0 0 .18-.042c.043-.028.075-.077.096-.149a1.17 1.17 0 0 0 .032-.312c0-.137-.011-.241-.032-.313-.021-.072-.053-.12-.095-.146a.346.346 0 0 0-.181-.04h-.816v-1.362a1.688 1.688 0 0 0 1.284.576c.427 0 .8-.104 1.119-.312.319-.208.563-.492.732-.85.17-.358.254-.758.254-1.2 0-.444-.084-.844-.254-1.202a2.025 2.025 0 0 0-.732-.85 1.999 1.999 0 0 0-1.118-.312c-.31 0-.591.072-.845.217a1.84 1.84 0 0 0-.635.608v-.41c0-.11-.023-.19-.07-.237-.048-.047-.127-.07-.237-.07h-1.143a.33.33 0 0 0-.18.04c-.043.028-.075.078-.096.15a1.17 1.17 0 0 0-.032.312c0 .137.01.241.032.313.021.071.053.12.095.146a.35.35 0 0 0 .181.04h.425v4.404h-.425a.33.33 0 0 0-.18.041c-.043.028-.075.077-.096.149a1.17 1.17 0 0 0-.032.312c0 .137.01.241.032.313.021.072.053.12.095.146a.34.34 0 0 0 .181.04h2.46Zm.273-2.896a1.053 1.053 0 0 1-.972-.579c-.1-.19-.15-.415-.15-.676 0-.26.05-.486.15-.676a1.053 1.053 0 0 1 .972-.579.91.91 0 0 1 .528.154c.15.103.264.248.344.437.08.189.12.41.12.664 0 .254-.04.475-.12.664a.971.971 0 0 1-.344.437.91.91 0 0 1-.528.154Zm5.088 1.108c.303 0 .598-.054.884-.163.286-.11.558-.263.815-.462.082.18.2.31.354.393.155.083.333.125.535.125h.547a.346.346 0 0 0 .18-.04c.043-.025.075-.074.096-.146a1.17 1.17 0 0 0 .032-.312c0-.137-.011-.24-.032-.313a.257.257 0 0 0-.095-.148.33.33 0 0 0-.181-.042h-.151a.282.282 0 0 1-.24-.11.496.496 0 0 1-.083-.305v-1.411c0-.576-.16-1.019-.478-1.328-.32-.31-.837-.464-1.553-.464-.286 0-.592.026-.918.078-.325.052-.633.13-.923.234-.15.056-.224.166-.224.332 0 .092.024.209.073.352a.8.8 0 0 0 .173.305.31.31 0 0 0 .218.09.519.519 0 0 0 .141-.024 5.64 5.64 0 0 1 .7-.188c.237-.047.45-.07.643-.07.345 0 .586.051.723.156.136.104.205.265.205.483v.142a7.06 7.06 0 0 0-1.382-.147c-.58 0-1.03.125-1.353.376-.322.25-.483.604-.483 1.06 0 .315.07.59.212.822.142.233.346.412.613.537.267.126.584.188.952.188Zm.156-1.03c-.218 0-.384-.04-.5-.12a.397.397 0 0 1-.173-.349c0-.156.06-.275.178-.356.119-.081.292-.122.52-.122.41 0 .83.044 1.26.132v.312c-.192.156-.398.28-.618.369-.22.09-.442.134-.667.134Zm6.622 1.03c.335 0 .67-.047 1.003-.141.334-.095.652-.226.955-.396.14-.078.21-.19.21-.337a.958.958 0 0 0-.088-.356c-.111-.257-.24-.386-.386-.386a.337.337 0 0 0-.161.049 3.73 3.73 0 0 1-.764.337 2.585 2.585 0 0 1-.77.122c-.234 0-.439-.051-.615-.154a1.035 1.035 0 0 1-.407-.44 1.45 1.45 0 0 1-.144-.66c0-.252.048-.472.144-.662.096-.19.232-.337.407-.44.176-.102.381-.154.616-.154.185 0 .344.035.476.105a.721.721 0 0 1 .398.662c0 .078.016.138.048.18.033.043.09.075.174.096.083.02.2.031.354.031.23 0 .396-.023.495-.07a.243.243 0 0 0 .15-.237v-1.568c0-.113-.038-.193-.113-.239-.075-.045-.213-.068-.415-.068-.208 0-.36.023-.454.07a.245.245 0 0 0-.142.237v.264c-.218-.38-.59-.571-1.118-.571-.436 0-.83.1-1.184.3-.353.2-.632.48-.837.84-.205.36-.308.767-.308 1.223 0 .456.102.863.305 1.22.204.359.493.639.867.84.374.203.809.303 1.304.303Zm5.918 0c.325 0 .657-.03.996-.092.338-.062.67-.147.996-.254a.39.39 0 0 0 .183-.115.31.31 0 0 0 .056-.198 1.19 1.19 0 0 0-.049-.307.953.953 0 0 0-.141-.332.232.232 0 0 0-.186-.098.369.369 0 0 0-.117.02 5.668 5.668 0 0 1-1.64.268c-.313 0-.571-.07-.775-.207a.962.962 0 0 1-.398-.599h3.135c.11 0 .19-.022.237-.068.047-.046.07-.124.07-.234 0-.489-.088-.922-.265-1.302a2.021 2.021 0 0 0-.789-.888c-.348-.214-.77-.32-1.265-.32-.491 0-.92.1-1.289.303-.368.201-.65.481-.844.84a2.507 2.507 0 0 0-.293 1.22c0 .46.093.867.28 1.223.188.357.46.636.818.838.358.202.785.302 1.28.302Zm1.093-2.866h-2.148c.14-.501.508-.752 1.103-.752.28 0 .51.066.691.198a.916.916 0 0 1 .354.554Zm6.743.464a.33.33 0 0 0 .181-.041c.042-.028.074-.081.095-.16.021-.077.032-.193.032-.346 0-.153-.01-.268-.032-.346-.02-.079-.053-.132-.095-.162a.315.315 0 0 0-.18-.044h-3.721a.315.315 0 0 0-.18.044c-.043.03-.075.083-.096.162a1.418 1.418 0 0 0-.032.346c0 .153.01.269.032.347.021.078.053.13.095.159a.33.33 0 0 0 .18.041h3.721Zm4.556 2.402c.427 0 .8-.104 1.118-.312.32-.208.563-.492.733-.85.169-.358.254-.758.254-1.2a2.78 2.78 0 0 0-.254-1.202 2.025 2.025 0 0 0-.733-.85 1.999 1.999 0 0 0-1.118-.312 1.688 1.688 0 0 0-1.284.576v-2.056c0-.11-.024-.19-.07-.236-.048-.048-.127-.071-.238-.071h-1.386a.33.33 0 0 0-.181.041c-.042.028-.074.078-.095.15a1.17 1.17 0 0 0-.032.312c0 .136.01.24.032.312.02.072.053.12.095.147a.344.344 0 0 0 .18.039h.474v4.404h-.376a.346.346 0 0 0-.18.04c-.043.025-.074.074-.096.146a1.17 1.17 0 0 0-.031.312c0 .137.01.241.031.313.022.071.053.12.096.148a.33.33 0 0 0 .18.042h1.094c.11 0 .19-.024.237-.07.047-.048.07-.127.07-.238v-.41c.17.26.381.463.635.608.254.145.536.217.845.217ZM288.133 45a1.053 1.053 0 0 1-.972-.579c-.1-.19-.151-.415-.151-.676 0-.26.05-.486.151-.676a1.053 1.053 0 0 1 .972-.579.91.91 0 0 1 .527.154c.15.103.265.248.344.437.08.189.12.41.12.664 0 .254-.04.475-.12.664a.971.971 0 0 1-.344.437.91.91 0 0 1-.527.154Zm5.79 1.108c.326 0 .658-.03.997-.092.338-.062.67-.147.996-.254a.39.39 0 0 0 .183-.115.31.31 0 0 0 .056-.198 1.19 1.19 0 0 0-.049-.307.953.953 0 0 0-.141-.332.232.232 0 0 0-.186-.098.369.369 0 0 0-.117.02 5.668 5.668 0 0 1-1.64.268c-.313 0-.571-.07-.774-.207a.962.962 0 0 1-.398-.599h3.134c.111 0 .19-.022.237-.068.047-.046.071-.124.071-.234 0-.489-.089-.922-.266-1.302a2.021 2.021 0 0 0-.789-.888c-.348-.214-.77-.32-1.264-.32-.492 0-.922.1-1.29.303a2.07 2.07 0 0 0-.844.84 2.507 2.507 0 0 0-.293 1.22c0 .46.093.867.28 1.223.188.357.46.636.819.838.358.202.784.302 1.279.302Zm1.095-2.866h-2.149c.14-.501.508-.752 1.104-.752.28 0 .51.066.69.198.181.132.3.317.355.554Zm5.351 2.866c.492 0 1.073-.169 1.743-.507a.433.433 0 0 0 .154-.125.296.296 0 0 0 .051-.178c0-.091-.029-.21-.088-.357a.82.82 0 0 0-.166-.28.27.27 0 0 0-.19-.086c-.042 0-.1.015-.17.044a7.47 7.47 0 0 1-.702.28 1.66 1.66 0 0 1-.524.101c-.42 0-.63-.27-.63-.81v-1.36h1.811c.114 0 .194-.037.24-.11.045-.073.068-.21.068-.412 0-.202-.023-.34-.069-.415-.045-.075-.125-.113-.239-.113h-1.811v-1.377a.291.291 0 0 0-.05-.18c-.032-.043-.09-.074-.172-.096a1.515 1.515 0 0 0-.354-.031c-.232 0-.397.023-.496.07a.243.243 0 0 0-.149.237v1.377h-.942c-.114 0-.194.038-.24.113-.045.074-.068.213-.068.415 0 .201.023.339.068.412.046.073.126.11.24.11h.942v1.421c0 .605.149 1.066.447 1.382.298.316.73.473 1.296.473Zm6.812 0c.195 0 .336-.023.422-.07a.352.352 0 0 0 .168-.247l.713-3.3h.2a.346.346 0 0 0 .181-.04c.043-.026.074-.075.095-.146a1.17 1.17 0 0 0 .032-.313c0-.137-.01-.24-.032-.312-.02-.072-.052-.122-.095-.15a.33.33 0 0 0-.18-.04h-1.631a.33.33 0 0 0-.181.04c-.042.028-.074.078-.095.15a1.17 1.17 0 0 0-.032.312c0 .137.01.241.032.313.021.071.053.12.095.146.042.026.103.04.18.04h.352l-.38 1.894-.67-1.69a.367.367 0 0 0-.158-.185.664.664 0 0 0-.315-.059.559.559 0 0 0-.308.071.426.426 0 0 0-.16.208l-.675 1.655-.366-1.895h.415a.346.346 0 0 0 .18-.039c.043-.026.075-.075.096-.146a1.17 1.17 0 0 0 .032-.313c0-.137-.01-.24-.032-.312-.021-.072-.053-.122-.095-.15a.33.33 0 0 0-.18-.04h-1.68a.33.33 0 0 0-.181.04c-.043.028-.074.078-.095.15a1.17 1.17 0 0 0-.032.312c0 .137.01.241.032.313.02.071.052.12.095.146.042.026.102.04.18.04h.166l.699 3.3c.026.117.08.2.163.247.083.047.222.07.418.07.192 0 .333-.024.425-.073a.455.455 0 0 0 .205-.244l.693-1.733.684 1.733a.434.434 0 0 0 .2.244c.09.049.23.073.42.073Zm4.731 0c.326 0 .658-.03.996-.092.339-.062.67-.147.996-.254a.39.39 0 0 0 .183-.115.31.31 0 0 0 .057-.198c0-.084-.017-.187-.05-.307a.953.953 0 0 0-.14-.332.232.232 0 0 0-.186-.098.369.369 0 0 0-.118.02 5.668 5.668 0 0 1-1.64.268c-.313 0-.57-.07-.774-.207a.962.962 0 0 1-.398-.599h3.135c.11 0 .19-.022.236-.068.048-.046.071-.124.071-.234 0-.489-.088-.922-.266-1.302a2.021 2.021 0 0 0-.788-.888c-.349-.214-.77-.32-1.265-.32-.492 0-.921.1-1.29.303a2.07 2.07 0 0 0-.844.84 2.507 2.507 0 0 0-.293 1.22c0 .46.094.867.28 1.223.188.357.46.636.819.838.358.202.784.302 1.28.302Zm1.094-2.866h-2.149c.14-.501.508-.752 1.104-.752.28 0 .51.066.69.198.182.132.3.317.355.554Zm4.902 2.866c.326 0 .658-.03.996-.092.339-.062.67-.147.996-.254a.39.39 0 0 0 .183-.115.31.31 0 0 0 .057-.198c0-.084-.017-.187-.05-.307a.953.953 0 0 0-.14-.332.232.232 0 0 0-.186-.098.369.369 0 0 0-.118.02 5.668 5.668 0 0 1-1.64.268c-.313 0-.57-.07-.774-.207a.962.962 0 0 1-.398-.599h3.135c.11 0 .19-.022.237-.068.047-.046.07-.124.07-.234 0-.489-.088-.922-.266-1.302a2.021 2.021 0 0 0-.788-.888c-.349-.214-.77-.32-1.265-.32-.492 0-.921.1-1.289.303-.368.201-.65.481-.845.84a2.507 2.507 0 0 0-.293 1.22c0 .46.094.867.281 1.223.187.357.46.636.818.838.358.202.784.302 1.28.302Zm1.094-2.866h-2.148c.14-.501.507-.752 1.103-.752.28 0 .51.066.69.198.182.132.3.317.355.554ZM323.396 46a.346.346 0 0 0 .181-.04c.042-.025.074-.074.095-.146a1.17 1.17 0 0 0 .032-.312c0-.137-.01-.24-.032-.313a.252.252 0 0 0-.095-.148.33.33 0 0 0-.18-.042h-.23v-.796c0-.3.051-.58.154-.845a1.68 1.68 0 0 1 .408-.632c.169-.158.348-.237.537-.237.205 0 .351.065.44.196.087.13.13.322.13.576v1.738h-.229a.33.33 0 0 0-.18.042c-.043.027-.074.077-.095.148a1.17 1.17 0 0 0-.032.313c0 .137.01.24.032.312.02.072.052.12.095.147a.344.344 0 0 0 .18.039h1.827a.346.346 0 0 0 .18-.04c.043-.025.074-.074.095-.146a1.17 1.17 0 0 0 .032-.312c0-.137-.01-.24-.032-.313-.02-.071-.052-.12-.095-.148a.33.33 0 0 0-.18-.042h-.376v-2.026c0-.323-.06-.603-.181-.843a1.306 1.306 0 0 0-.515-.554 1.516 1.516 0 0 0-.779-.195c-.645 0-1.182.374-1.611 1.123v-.708c0-.11-.024-.19-.071-.237-.047-.047-.126-.07-.237-.07h-1.191a.33.33 0 0 0-.181.04c-.042.028-.074.078-.095.15a1.17 1.17 0 0 0-.032.312c0 .137.01.241.032.313.02.071.053.12.095.146.042.026.103.04.18.04h.474v2.509h-.376a.33.33 0 0 0-.18.042c-.043.027-.074.077-.096.148a1.17 1.17 0 0 0-.031.313c0 .137.01.24.031.312.022.072.053.12.096.147a.344.344 0 0 0 .18.039h1.826Zm60.302 1.154a5.42 5.42 0 0 0 2.058-.392 5.138 5.138 0 0 0 1.666-1.071 5.002 5.002 0 0 0 1.512-3.591c0-.7-.135-1.36-.406-1.981a5.002 5.002 0 0 0-1.106-1.61 5.138 5.138 0 0 0-1.666-1.071 5.42 5.42 0 0 0-2.058-.392 5.42 5.42 0 0 0-2.058.392 5.12 5.12 0 0 0-1.666 1.071 5.002 5.002 0 0 0-1.512 3.591 5.013 5.013 0 0 0 1.512 3.591 5.13 5.13 0 0 0 1.666 1.071 5.42 5.42 0 0 0 2.058.392Zm0-2.212a2.732 2.732 0 0 1-1.967-.812 2.708 2.708 0 0 1-.581-.903c-.14-.35-.21-.726-.21-1.127s.07-.777.21-1.127c.14-.35.334-.651.581-.903a2.718 2.718 0 0 1 1.967-.812 2.732 2.732 0 0 1 1.967.812c.247.252.441.553.581.903.14.35.21.726.21 1.127s-.07.777-.21 1.127c-.14.35-.334.651-.581.903a2.718 2.718 0 0 1-1.967.812ZM392.364 47V36.71l-2.268.49V47h2.268Zm4.844.098c.364 0 .714-.056 1.05-.168.336-.112.649-.27.938-.476V47h2.24V36.71l-2.268.49v2.786a3.762 3.762 0 0 0-.896-.364 3.869 3.869 0 0 0-.994-.126 3.88 3.88 0 0 0-2.73 1.099 3.8 3.8 0 0 0-.819 1.204c-.2.462-.301.959-.301 1.491a3.834 3.834 0 0 0 1.099 2.702 3.742 3.742 0 0 0 2.681 1.106Zm.392-1.932a1.93 1.93 0 0 1-1.379-.539 1.77 1.77 0 0 1-.567-1.337c0-.532.187-.978.56-1.337.373-.36.835-.539 1.386-.539.308 0 .597.051.868.154.27.103.504.243.7.42v2.59a2.044 2.044 0 0 1-.7.441c-.261.098-.55.147-.868.147Zm8.932 1.974a4.86 4.86 0 0 0 1.659-.266 4.76 4.76 0 0 0 1.435-.854l-1.498-1.33a1.841 1.841 0 0 1-.644.413 2.3 2.3 0 0 1-.84.147c-.43 0-.803-.11-1.12-.329a1.958 1.958 0 0 1-.7-.847h5.278v-.56c0-.579-.093-1.118-.28-1.617a3.8 3.8 0 0 0-.777-1.281 3.615 3.615 0 0 0-2.681-1.148c-.541 0-1.048.098-1.519.294a3.75 3.75 0 0 0-1.225.812 3.839 3.839 0 0 0-.819 1.225c-.2.471-.301.973-.301 1.505 0 .532.105 1.034.315 1.505.21.471.495.88.854 1.225.36.345.786.616 1.281.812a4.255 4.255 0 0 0 1.582.294Zm1.344-4.648h-3.094c.112-.373.303-.663.574-.868.27-.205.593-.308.966-.308.364 0 .684.107.959.322.275.215.474.5.595.854ZM413.434 47v-4.704a2.034 2.034 0 0 1 1.722-.938 2.78 2.78 0 0 1 1.078.224v-1.974a.833.833 0 0 0-.336-.133 4.076 4.076 0 0 0-.518-.049c-.401 0-.765.08-1.092.238a2.574 2.574 0 0 0-.854.672v-.742h-2.268V47h2.268Zm8.778 2.954v-3.346c.28.159.579.28.896.364.317.084.649.126.994.126a3.88 3.88 0 0 0 2.73-1.099 3.8 3.8 0 0 0 .819-1.204c.2-.462.301-.959.301-1.491 0-.532-.098-1.029-.294-1.491a3.843 3.843 0 0 0-.805-1.211 3.742 3.742 0 0 0-2.681-1.106c-.364 0-.714.056-1.05.168-.336.112-.649.27-.938.476v-.546h-2.24v10.36h2.268Zm1.568-4.774a2.42 2.42 0 0 1-.868-.154 2.186 2.186 0 0 1-.7-.42v-2.59c.205-.196.439-.343.7-.441.261-.098.55-.147.868-.147.541 0 1.001.18 1.379.539.378.36.567.805.567 1.337 0 .532-.187.978-.56 1.337-.373.36-.835.539-1.386.539Zm8.988 1.96c.56 0 1.085-.098 1.575-.294.49-.196.915-.467 1.274-.812.36-.345.644-.754.854-1.225.21-.471.315-.973.315-1.505 0-.532-.105-1.034-.315-1.505a3.857 3.857 0 0 0-.854-1.225 4.115 4.115 0 0 0-2.849-1.12 4.115 4.115 0 0 0-2.849 1.12c-.36.345-.644.754-.854 1.225-.21.471-.315.973-.315 1.505 0 .532.105 1.034.315 1.505.21.471.495.88.854 1.225.36.345.784.616 1.274.812.49.196 1.015.294 1.575.294Zm0-1.96a1.71 1.71 0 0 1-1.281-.546 1.847 1.847 0 0 1-.525-1.33c0-.532.175-.98.525-1.344a1.71 1.71 0 0 1 1.281-.546c.504 0 .931.182 1.281.546.35.364.525.812.525 1.344 0 .523-.175.966-.525 1.33a1.71 1.71 0 0 1-1.281.546Zm8.008 1.96c.476 0 .92-.063 1.33-.189.41-.126.763-.301 1.057-.525.294-.224.525-.49.693-.798.168-.308.252-.64.252-.994 0-.579-.198-1.057-.595-1.435-.397-.378-.959-.618-1.687-.721l-1.47-.224c-.317-.047-.541-.114-.672-.203a.411.411 0 0 1-.196-.357c0-.159.089-.287.266-.385.177-.098.41-.147.7-.147.364 0 .728.054 1.092.161.364.107.747.278 1.148.511l1.078-1.456a5.727 5.727 0 0 0-1.491-.665 5.789 5.789 0 0 0-1.603-.231c-.99 0-1.769.215-2.338.644-.57.43-.854 1.017-.854 1.764 0 .607.196 1.099.588 1.477.392.378.952.623 1.68.735l1.47.224c.261.037.453.1.574.189a.407.407 0 0 1 .182.343c0 .177-.11.32-.329.427-.22.107-.516.161-.889.161a3.61 3.61 0 0 1-1.134-.189 6.453 6.453 0 0 1-1.274-.609l-1.078 1.526c.43.317.945.558 1.547.721a7.437 7.437 0 0 0 1.953.245Zm7.798-.042c.215 0 .48-.021.798-.063.317-.042.579-.096.784-.161V45.04c-.187.056-.36.096-.518.119a3.465 3.465 0 0 1-.504.035c-.364 0-.618-.068-.763-.203-.145-.135-.217-.366-.217-.693v-2.814h2.072v-1.89h-2.072V37.2l-2.268.49v1.904h-1.498v1.89h1.498v3.262c0 .775.226 1.36.679 1.757.453.397 1.122.595 2.009.595Zm5.6.042c.476 0 .92-.063 1.33-.189.41-.126.763-.301 1.057-.525.294-.224.525-.49.693-.798.168-.308.252-.64.252-.994 0-.579-.198-1.057-.595-1.435-.397-.378-.959-.618-1.687-.721l-1.47-.224c-.317-.047-.541-.114-.672-.203a.411.411 0 0 1-.196-.357c0-.159.089-.287.266-.385.177-.098.41-.147.7-.147.364 0 .728.054 1.092.161.364.107.747.278 1.148.511l1.078-1.456a5.727 5.727 0 0 0-1.491-.665 5.789 5.789 0 0 0-1.603-.231c-.99 0-1.769.215-2.338.644-.57.43-.854 1.017-.854 1.764 0 .607.196 1.099.588 1.477.392.378.952.623 1.68.735l1.47.224c.261.037.453.1.574.189a.407.407 0 0 1 .182.343c0 .177-.11.32-.329.427-.22.107-.516.161-.889.161a3.61 3.61 0 0 1-1.134-.189 6.453 6.453 0 0 1-1.274-.609l-1.078 1.526c.43.317.945.558 1.547.721a7.437 7.437 0 0 0 1.953.245ZM13.08 47v-5.908L17.672 47H19.8v-9.8h-2.268v5.684L13.08 37.2h-2.268V47h2.268Zm11.928.14a4.86 4.86 0 0 0 1.659-.266 4.76 4.76 0 0 0 1.435-.854l-1.498-1.33a1.841 1.841 0 0 1-.644.413 2.3 2.3 0 0 1-.84.147c-.43 0-.803-.11-1.12-.329a1.958 1.958 0 0 1-.7-.847h5.278v-.56c0-.579-.093-1.118-.28-1.617a3.8 3.8 0 0 0-.777-1.281 3.615 3.615 0 0 0-2.681-1.148c-.541 0-1.048.098-1.519.294a3.75 3.75 0 0 0-1.225.812 3.839 3.839 0 0 0-.819 1.225c-.2.471-.301.973-.301 1.505 0 .532.105 1.034.315 1.505.21.471.495.88.854 1.225.36.345.786.616 1.281.812a4.255 4.255 0 0 0 1.582.294Zm1.344-4.648h-3.094c.112-.373.303-.663.574-.868.27-.205.593-.308.966-.308.364 0 .684.107.959.322.275.215.474.5.595.854ZM33.114 47l1.274-4.284L35.676 47h2.17l2.03-7.406h-2.114l-1.078 4.368-1.33-4.368h-1.876l-1.33 4.354-1.092-4.354h-2.142L30.93 47h2.184Zm11.13.14a4.86 4.86 0 0 0 1.659-.266 4.76 4.76 0 0 0 1.435-.854l-1.498-1.33a1.841 1.841 0 0 1-.644.413 2.3 2.3 0 0 1-.84.147c-.43 0-.803-.11-1.12-.329a1.958 1.958 0 0 1-.7-.847h5.278v-.56c0-.579-.093-1.118-.28-1.617a3.8 3.8 0 0 0-.777-1.281 3.615 3.615 0 0 0-2.681-1.148c-.541 0-1.048.098-1.519.294a3.75 3.75 0 0 0-1.225.812 3.839 3.839 0 0 0-.819 1.225c-.2.471-.301.973-.301 1.505 0 .532.105 1.034.315 1.505.21.471.495.88.854 1.225.36.345.786.616 1.281.812a4.255 4.255 0 0 0 1.582.294Zm1.344-4.648h-3.094c.112-.373.303-.663.574-.868.27-.205.593-.308.966-.308.364 0 .684.107.959.322.275.215.474.5.595.854ZM51.146 47v-4.704a2.034 2.034 0 0 1 1.722-.938 2.78 2.78 0 0 1 1.078.224v-1.974a.833.833 0 0 0-.336-.133 4.076 4.076 0 0 0-.518-.049c-.401 0-.765.08-1.092.238a2.574 2.574 0 0 0-.854.672v-.742h-2.268V47h2.268Zm8.778 2.954v-3.346c.28.159.579.28.896.364.317.084.649.126.994.126a3.88 3.88 0 0 0 2.73-1.099 3.8 3.8 0 0 0 .819-1.204c.2-.462.301-.959.301-1.491 0-.532-.098-1.029-.294-1.491a3.843 3.843 0 0 0-.805-1.211 3.742 3.742 0 0 0-2.681-1.106c-.364 0-.714.056-1.05.168-.336.112-.649.27-.938.476v-.546h-2.24v10.36h2.268Zm1.568-4.774a2.42 2.42 0 0 1-.868-.154 2.186 2.186 0 0 1-.7-.42v-2.59c.205-.196.439-.343.7-.441.261-.098.55-.147.868-.147.541 0 1.001.18 1.379.539.378.36.567.805.567 1.337 0 .532-.187.978-.56 1.337-.373.36-.835.539-1.386.539Zm8.988 1.96c.56 0 1.085-.098 1.575-.294.49-.196.915-.467 1.274-.812.36-.345.644-.754.854-1.225.21-.471.315-.973.315-1.505 0-.532-.105-1.034-.315-1.505a3.857 3.857 0 0 0-.854-1.225 4.115 4.115 0 0 0-2.849-1.12 4.115 4.115 0 0 0-2.849 1.12c-.36.345-.644.754-.854 1.225-.21.471-.315.973-.315 1.505 0 .532.105 1.034.315 1.505.21.471.495.88.854 1.225.36.345.784.616 1.274.812.49.196 1.015.294 1.575.294Zm0-1.96a1.71 1.71 0 0 1-1.281-.546 1.847 1.847 0 0 1-.525-1.33c0-.532.175-.98.525-1.344a1.71 1.71 0 0 1 1.281-.546c.504 0 .931.182 1.281.546.35.364.525.812.525 1.344 0 .523-.175.966-.525 1.33a1.71 1.71 0 0 1-1.281.546Zm8.008 1.96c.476 0 .92-.063 1.33-.189.41-.126.763-.301 1.057-.525.294-.224.525-.49.693-.798.168-.308.252-.64.252-.994 0-.579-.198-1.057-.595-1.435-.397-.378-.959-.618-1.687-.721l-1.47-.224c-.317-.047-.541-.114-.672-.203a.411.411 0 0 1-.196-.357c0-.159.089-.287.266-.385.177-.098.41-.147.7-.147.364 0 .728.054 1.092.161.364.107.747.278 1.148.511l1.078-1.456a5.727 5.727 0 0 0-1.491-.665 5.789 5.789 0 0 0-1.603-.231c-.99 0-1.769.215-2.338.644-.57.43-.854 1.017-.854 1.764 0 .607.196 1.099.588 1.477.392.378.952.623 1.68.735l1.47.224c.261.037.453.1.574.189a.407.407 0 0 1 .182.343c0 .177-.11.32-.329.427-.22.107-.516.161-.889.161a3.61 3.61 0 0 1-1.134-.189 6.453 6.453 0 0 1-1.274-.609l-1.078 1.526c.43.317.945.558 1.547.721a7.437 7.437 0 0 0 1.953.245Zm7.798-.042c.215 0 .48-.021.798-.063.317-.042.579-.096.784-.161V45.04c-.187.056-.36.096-.518.119a3.465 3.465 0 0 1-.504.035c-.364 0-.618-.068-.763-.203-.145-.135-.217-.366-.217-.693v-2.814h2.072v-1.89h-2.072V37.2l-2.268.49v1.904H82.1v1.89h1.498v3.262c0 .775.226 1.36.679 1.757.453.397 1.122.595 2.009.595Zm5.6.042c.476 0 .92-.063 1.33-.189.41-.126.763-.301 1.057-.525.294-.224.525-.49.693-.798.168-.308.252-.64.252-.994 0-.579-.198-1.057-.595-1.435-.397-.378-.959-.618-1.687-.721l-1.47-.224c-.317-.047-.541-.114-.672-.203a.411.411 0 0 1-.196-.357c0-.159.089-.287.266-.385.177-.098.41-.147.7-.147.364 0 .728.054 1.092.161.364.107.747.278 1.148.511l1.078-1.456a5.727 5.727 0 0 0-1.491-.665 5.789 5.789 0 0 0-1.603-.231c-.99 0-1.769.215-2.338.644-.57.43-.854 1.017-.854 1.764 0 .607.196 1.099.588 1.477.392.378.952.623 1.68.735l1.47.224c.261.037.453.1.574.189a.407.407 0 0 1 .182.343c0 .177-.11.32-.329.427-.22.107-.516.161-.889.161a3.61 3.61 0 0 1-1.134-.189 6.453 6.453 0 0 1-1.274-.609l-1.078 1.526c.43.317.945.558 1.547.721a7.437 7.437 0 0 0 1.953.245Z" fill="#333D51" fill-rule="nonzero"/></g></svg>